<?xml version="1.0" encoding="UTF-8"?><svg id="Layer_1" xmlns="http://www.w3.org/2000/svg" viewBox="0 0 50 50"><defs><style>.cls-1{stroke-width:1.13px;}.cls-1,.cls-2{fill:#231f20;}.cls-1,.cls-2,.cls-3{stroke:#231f20;}.cls-1,.cls-2,.cls-3,.cls-4{stroke-miterlimit:10;}.cls-2,.cls-3,.cls-4{stroke-width:.43px;}.cls-3,.cls-4{fill:#fff;}.cls-4{stroke:#000;}</style></defs><path class="cls-1" d="M30.04,16.92c-.84,0-1.54-.25-2.07-.75-.54-.5-.82-1.13-.82-1.87s.27-1.4,.82-1.9c.54-.5,1.23-.75,2.07-.75s1.51,.25,2.05,.75c.54,.5,.82,1.14,.82,1.9s-.27,1.37-.82,1.87c-.54,.5-1.23,.75-2.05,.75Zm0-4.86c-.74,0-1.32,.21-1.79,.64-.46,.43-.68,.95-.68,1.59s.22,1.14,.68,1.56h0c.46,.43,1.05,.64,1.79,.64s1.3-.21,1.76-.64c.46-.43,.68-.94,.68-1.56s-.22-1.16-.68-1.59c-.46-.43-1.04-.64-1.76-.64Z"/><path class="cls-2" d="M18.52,44.74c-3.9,0-7.07-1.22-9.41-3.61-2.05-2.09-3.22-4.84-3.48-8.18l2.1-.16c.22,2.87,1.16,5.12,2.88,6.87,1.96,2,4.55,2.98,7.91,2.98s5.73-.91,7.63-2.8c1.67-1.65,2.57-3.72,2.78-6.34l2.1,.16c-.24,3.1-1.38,5.69-3.4,7.68-2.28,2.26-5.35,3.41-9.12,3.41Z"/><rect class="cls-2" x="28.97" y="16.75" width="2.11" height="7.23"/><path class="cls-2" d="M45.57,36.57c-2.09-3.62-4.24-7.3-6.53-11.22,.03-.08,.04-.17,.05-.25,3.36-1.39,5.75-4.37,6.27-7.94,.31-2.33,.22-5.66-1.98-8.3l-.02-.02c-1.31-1.5-2.83-2.64-4.52-3.39-1.07-.53-2.35-.79-3.89-.8-3.82-.26-7.68-.23-11.41-.2-1.24,.01-2.52,.02-3.78,.02h-1.05v1.05c0,10.2,0,20.73,.08,31.19h2.09c-.07-10.09-.08-20.27-.08-30.14,.92,0,1.85-.01,2.75-.02,3.71-.03,7.54-.07,11.29,.19h.07c1.24,0,2.23,.19,3.02,.59l.04,.02c1.42,.63,2.7,1.59,3.81,2.86,1.7,2.05,1.76,4.76,1.5,6.67-.46,3.2-2.85,5.8-6.1,6.66-.03,0-.06,.02-.1,.03l-1.33,.34,.03,.05h0l.67,1.15v.02c2.4,4.07,4.62,7.87,6.77,11.59h2.42l-.08-.13Z"/><path class="cls-1" d="M32.85,33.78h-5.47v-10h5.47v10Zm-5.05-.42h4.63v-9.16h-4.63v9.16Z"/><line class="cls-3" x1="3.72" y1="32.87" x2="9.69" y2="32.87"/><rect class="cls-1" x="3.72" y="32.66" width="5.98" height=".42"/><line class="cls-4" x1="1.8" y1="30.43" x2="11.56" y2="30.43"/><rect class="cls-1" x="1.8" y="30.22" width="9.76" height=".42"/></svg>